PathFileType	4	(X/Y/Z)	pose2sim_0-881_filt_butterworth_LSTM.trc
DataRate	CameraRate	NumFrames	NumMarkers	Units	OrigDataRate	OrigDataStartFrame	OrigNumFrames
50	50	4	65	m	50	0	881
Frame#	Time	Hip			RHip			RKnee			RAnkle			RBigToe			RSmallToe			RHeel			LHip			LKnee			LAnkle			LBigToe			LSmallToe			LHeel			Neck			Head			Nose			RShoulder			RElbow			RWrist			LShoulder			LElbow			LWrist			r.ASIS_study			L.ASIS_study			r.PSIS_study			L.PSIS_study			r_knee_study			r_mknee_study			r_ankle_study			r_mankle_study			r_toe_study			r_5meta_study			r_calc_study			L_knee_study			L_mknee_study			L_ankle_study			L_mankle_study			L_toe_study			L_calc_study			L_5meta_study			r_shoulder_study			L_shoulder_study			C7_study			r_thigh1_study			r_thigh2_study			r_thigh3_study			L_thigh1_study			L_thigh2_study			L_thigh3_study			r_sh1_study			r_sh2_study			r_sh3_study			L_sh1_study			L_sh2_study			L_sh3_study			RHJC_study			LHJC_study			r_lelbow_study			r_melbow_study			r_lwrist_study			r_mwrist_study			L_lelbow_study			L_melbow_study			L_lwrist_study			L_mwrist_study			
		X1	Y1	Z1	X2	Y2	Z2	X3	Y3	Z3	X4	Y4	Z4	X5	Y5	Z5	X6	Y6	Z6	X7	Y7	Z7	X8	Y8	Z8	X9	Y9	Z9	X10	Y10	Z10	X11	Y11	Z11	X12	Y12	Z12	X13	Y13	Z13	X14	Y14	Z14	X15	Y15	Z15	X16	Y16	Z16	X17	Y17	Z17	X18	Y18	Z18	X19	Y19	Z19	X20	Y20	Z20	X21	Y21	Z21	X22	Y22	Z22	X23	Y23	Z23	X24	Y24	Z24	X25	Y25	Z25	X26	Y26	Z26	X27	Y27	Z27	X28	Y28	Z28	X29	Y29	Z29	X30	Y30	Z30	X31	Y31	Z31	X32	Y32	Z32	X33	Y33	Z33	X34	Y34	Z34	X35	Y35	Z35	X36	Y36	Z36	X37	Y37	Z37	X38	Y38	Z38	X39	Y39	Z39	X40	Y40	Z40	X41	Y41	Z41	X42	Y42	Z42	X43	Y43	Z43	X44	Y44	Z44	X45	Y45	Z45	X46	Y46	Z46	X47	Y47	Z47	X48	Y48	Z48	X49	Y49	Z49	X50	Y50	Z50	X51	Y51	Z51	X52	Y52	Z52	X53	Y53	Z53	X54	Y54	Z54	X55	Y55	Z55	X56	Y56	Z56	X57	Y57	Z57	X58	Y58	Z58	X59	Y59	Z59	X60	Y60	Z60	X61	Y61	Z61	X62	Y62	Z62	X63	Y63	Z63	X64	Y64	Z64	X65	Y65	Z65	
0	0.0	0.1321572775224928	0.9756541139858608	-0.0478971476731149	0.0282300794517867	0.9553650698928254	-0.0385019407637114	0.0134663564216961	0.5207982761572454	-0.074890476261349	0.0022151217307319	0.0969195050634822	-0.0865082415728264	-0.0004090911360867	0.0438527571729839	0.1142780602871144	-0.0507309305033243	0.0423675333344385	0.0608574542713986	0.0078850409690938	0.0463471389482898	-0.1309856954060569	0.2347713792481386	0.9538823211763248	-0.0554632790879576	0.2416385930633381	0.5187260037359736	-0.1130015616883573	0.2433555039951917	0.0974744160413138	-0.1116790403930548	0.2884664371182426	0.0415255146371554	0.0717731499831198	0.3225541930067621	0.0402783082041457	0.0099103515807676	0.2285136061771143	0.0485272086052836	-0.1413707720180732	0.1468358562787629	1.5780355335361054	-0.0558998983318457	0.149410324715889	1.8212079233699432	-0.0223898961128268	0.1568962974949496	1.69916032467734	0.0581343916142078	-0.0198426432518992	1.4711998246391065	-0.0422952862734853	-0.0705921109773225	1.1877620273479217	-0.0364306085574554	-0.1335338877732586	0.9389878550265796	-0.0006494690035846	0.3181028344484399	1.4706417372366798	-0.0882529382553731	0.3549447579745182	1.1892089223328677	-0.0890436203666915	0.4013780853739673	0.9414310878688916	-0.0680956192877258	-0.004437687284698955	1.0438052229573482	0.034631472039379954	0.29081900519178155	1.029983421940813	-0.0033605430821948834	0.05718700391570343	1.0740099674953199	-0.1813627286237166	0.1720595924236715	1.069113741632854	-0.19614084210269891	-0.038353887115924856	0.5316267612510024	-0.05402455306534161	0.0853377426164304	0.5294823934902821	-0.05035149580186521	-0.048447822614650554	0.10020401778173027	-0.10003192445141482	0.04655575518836216	0.09981358126342466	-0.07415963856743135	-0.008230284444778274	0.052443694868141266	0.06425571536867598	-0.07210883661140752	0.05257446667600485	0.01566534578300638	0.009926275207125593	0.06643874772793001	-0.1732946690659628	0.30201102662230184	0.5217648705550233	-0.11240893118317928	0.1904870600210376	0.5235638955242875	-0.0688050587933748	0.2799378620614824	0.09148434045024856	-0.14743622836530113	0.20195326070532954	0.09410809747378601	-0.09381572065332501	0.2945843582252226	0.04882062864781289	0.016044327689447108	0.20546282091529172	0.05872814990072306	-0.1943976877241712	0.3372289588767553	0.042094469824138114	-0.049622636986771856	-0.007226989284632029	1.547235461392626	-0.03946243316966779	0.3127823477386695	1.5367585781552324	-0.0812176573595455	0.13583108173469982	1.562477033701756	-0.15389789100780008	-0.04602039777268507	0.8029497166285504	0.032652662675807256	-0.06627747958839927	0.6976904765543714	-0.004859503522193068	-0.0802320017770316	0.8132117470465591	-0.09279881349542365	0.3328384001095982	0.7951637344371429	-0.032763753335791936	0.3407124895381387	0.687662785887708	-0.0743295603865855	0.31901010009388847	0.801490706412183	-0.15416195772491068	-0.05273555157968826	0.40118768067186317	-0.06555331458526124	-0.06710951253178155	0.2695410008242948	-0.0424686849814921	-0.06858332583764748	0.2900247725626922	-0.1230023602312759	0.30737676407408443	0.3923081353420982	-0.12281136950901524	0.3225673375254676	0.2617814977766594	-0.10495948776989064	0.2990293784041522	0.278891238769556	-0.17754581306094344	0.03725348972126276	0.9570058397879864	-0.07303087111888264	0.21556621804420462	0.9490386455697722	-0.095723970413055	-0.11981554362060254	1.184058986737171	-0.038419800946499535	-0.053345162399535545	1.1676132508721337	-0.07479561948744037	-0.1087997635058526	0.9381391059436163	0.03756634893667521	-0.1363291348079465	0.9305131393787646	-0.023286145743308822	0.39270942177225066	1.1733963737123154	-0.11223063649234707	0.32213725610564015	1.1636776421783317	-0.12930528221866283	0.3882071084028685	0.9293030472056442	-0.0297941116579348	0.39763591143056337	0.9167413205980091	-0.09844917154606392
1	0.02	0.1329970957675546	0.9736097021313972	-0.0472702679544669	0.0275322653049184	0.9566627444932452	-0.0394082817016182	0.0126822572261884	0.5204834647795417	-0.0728370034758604	0.0025315532537434	0.0952292708211481	-0.0852267819634883	-0.0005088604805908	0.0427512378081839	0.1008993612930766	-0.0520076318116416	0.0431109824541539	0.0477108789870069	0.0098305427844267	0.0479897301675365	-0.1262662840219031	0.237857237011435	0.9547609703645648	-0.0565830355046417	0.2419384511961916	0.5189016998098243	-0.1094676476947521	0.2445602351789801	0.0965873259282696	-0.1117221242689979	0.288127390234734	0.0412239829659624	0.06424932792587	0.3258656284507096	0.0412718510430151	0.0004994565376093	0.2304828987655542	0.048990990984615	-0.1435686824389733	0.1462444727634979	1.579193994083447	-0.0550611841034126	0.1478441751447409	1.8222368501610884	-0.0215312817824629	0.1552127086193563	1.6975435472249107	0.0694543231940487	-0.0199369720047859	1.4715080343325253	-0.0440667535503251	-0.0709282945589617	1.1889092647035744	-0.0365527377529989	-0.1320366416847831	0.940626708687867	0.0037701638137082	0.3182285282600576	1.472170119925576	-0.0848417486924988	0.3557086268772318	1.191424193573508	-0.088245539573125	0.4028451305727908	0.9437858223016804	-0.068891837012333	-0.01210467982303537	1.0379358900615203	0.03900555993471287	0.29486145775805983	1.031569098715182	0.0003423126103057339	0.05491270440961907	1.0735396488059543	-0.18537343003424736	0.17477435347709164	1.0715340449109365	-0.20078745900707254	-0.04326310300086675	0.5255983991538937	-0.06088364133665517	0.08507409991850623	0.5247025102723121	-0.05308894278619719	-0.05001619727388293	0.09647288581106117	-0.10460113045803004	0.04750440231170462	0.09744513877174221	-0.07544408363832417	-0.00987655314884242	0.05078483437824122	0.06060171070582593	-0.07525737061565935	0.04580605746998634	0.008911892250988276	0.01043563427474209	0.0631690748953545	-0.1751658878695153	0.30431443156017624	0.5212141347194428	-0.11486683145172118	0.19215828714451189	0.5228412666965971	-0.06769196535949801	0.28613694895584424	0.09004246667930793	-0.14316076957669954	0.2083181274392476	0.09326054828612074	-0.08672855391926201	0.2990506515616305	0.04941173039567259	0.020622645878926732	0.21138329299733316	0.056713800530825864	-0.1880104333400469	0.34285982455055675	0.04150916213130629	-0.04594349073034135	-0.015500250875558091	1.5525355292497576	-0.040274365435569184	0.3158633510496578	1.546574836439354	-0.08050042578298594	0.13435911651563115	1.5699145442115559	-0.1596154973456024	-0.05392842701763392	0.7971792745441189	0.03263996974568191	-0.07405038870182395	0.6910200925212424	-0.008311401724906513	-0.0859263719184851	0.8080876081180481	-0.10013504640877596	0.3361940725318075	0.794959200321149	-0.034359591728265325	0.34395552158848847	0.6873554756526028	-0.07710494196535145	0.32414952466954217	0.8008174659519945	-0.15836724661924845	-0.057572295403621965	0.39793035493116313	-0.07207101583178208	-0.07200352270466376	0.26834161320118677	-0.04833892553222892	-0.07210694301987286	0.2833685071607077	-0.13029329475131007	0.31149092371850473	0.3923135017879872	-0.1244465709672177	0.328841781942526	0.26225406744251456	-0.10498427279760272	0.30236349709858756	0.2774110890138014	-0.17802837323031462	0.035741529193224444	0.9529850091414069	-0.07385397280566812	0.22116690044667137	0.9494626807634741	-0.09728931685689679	-0.12596235415477977	1.1807419118083953	-0.044014080638631575	-0.047730831092245574	1.1631423670490995	-0.07322757430261462	-0.1193439371284705	0.932227470837363	0.03709376038606868	-0.14033638221063324	0.9240930725022827	-0.02626827065204071	0.39615216803368614	1.1719910446491757	-0.11660675813938362	0.3173105510042312	1.1606262176154072	-0.1215519898779182	0.3969024685971536	0.9319804786720335	-0.024830008918324896	0.40293566031006967	0.9171721383042724	-0.09110924172329476
2	0.04	0.1335795653127448	0.972330308352934	-0.0467887494868786	0.0270840243507989	0.9576853495710872	-0.0400510625504347	0.0120281634813243	0.5203206235561754	-0.0715424298027182	0.0027288337098488	0.0940760305378291	-0.0843403598853968	-0.0006212998312325	0.0418921203747357	0.091056153323744	-0.053107385029103	0.0436293069050208	0.0377135895133289	0.0111547183961159	0.0491216250387184	-0.1229861551985496	0.2401420209658639	0.9554244055862192	-0.0569881191764629	0.2421359912799829	0.5191235232460102	-0.1068268372796874	0.2454501183684815	0.0959361082970388	-0.111532220637002	0.2876686394937489	0.0409603879768813	0.059232648380273	0.328195785421598	0.0417676997546106	-0.0063732084963222	0.2318829780997892	0.049307153591649	-0.1448509112479988	0.1458477840356786	1.5799501053651863	-0.0545091388927198	0.1466645887935042	1.823111992694704	-0.0210804168630922	0.1539506995611767	1.6965007429802197	0.0773687231547997	-0.0200008225720989	1.471681302400022	-0.0451829265232398	-0.0712088942198272	1.189667016107627	-0.0367243219612214	-0.1309738811135075	0.941693671217624	0.0072075667697293	0.3183080533829382	1.4732060488764502	-0.0821818866643157	0.3563308891954194	1.193011624504156	-0.0874731990576995	0.4038390162299003	0.9456829023756697	-0.0691325010347813	-0.014090526174711376	1.0353602663681654	0.039738885262424556	0.29747701018806666	1.0334096540046258	0.0035923040706632575	0.05656102995058325	1.0736444311304916	-0.18506254300807723	0.17799326936687176	1.0729421902800742	-0.1990924361401581	-0.044878992901847964	0.5251769940532554	-0.06419713576451312	0.08359367237822618	0.5231446090475448	-0.05457235620517521	-0.05174133209645798	0.0985982831417711	-0.10612234384452315	0.04446701319630375	0.09917167135186633	-0.07489909843434554	-0.013573639330698467	0.051613464963977895	0.05788385609494312	-0.07761831356606094	0.046207263944799126	0.0050558169493396116	0.009785541952711405	0.06498139292250915	-0.17364873022936783	0.3066239371606958	0.5221747718222307	-0.11658601435153503	0.1929784046564248	0.524053542900108	-0.07001414264840412	0.28853656148555074	0.09333031586858942	-0.14394360673791146	0.21011842286592036	0.09637763182646375	-0.08737054028782928	0.30041697355038455	0.05083549080980698	0.018145277723822795	0.21547380620750523	0.06058303669841758	-0.1869632301740335	0.3448320666523475	0.04476093633910816	-0.047896497521343916	-0.017832741831637938	1.552363240148459	-0.04183888423370271	0.31836451841004	1.549530495174177	-0.07881584426115751	0.13603152622522627	1.570347531027196	-0.16025687306995196	-0.05779915088936477	0.7959402369670355	0.028902896252359103	-0.07666432624890435	0.690354295525982	-0.01220084437131104	-0.08628888436583362	0.8063194305503407	-0.10323172187707502	0.3378230789002122	0.79518086397519	-0.032349637494014157	0.3462897750557672	0.6877158293582102	-0.07630650250393671	0.3275911780705302	0.8010742919763766	-0.15884197015515922	-0.05873481887998874	0.3978016027494775	-0.07563607890141473	-0.07495385140159053	0.26968388280894307	-0.05127426678508452	-0.07220771054021347	0.28412530988153406	-0.13401442439121108	0.3132678133536222	0.39463484209846	-0.12653883735295132	0.3307100937405301	0.26560080689174126	-0.10575363552376794	0.305104909341212	0.2795322453868673	-0.1804980244529964	0.03517734981536856	0.9500924275471574	-0.07493968949888616	0.22326427764046958	0.94920358623799	-0.09655309600193279	-0.129275553145325	1.1769529313439864	-0.04670929863481035	-0.045715347327386635	1.158308487093225	-0.07179975189841178	-0.12089228038444169	0.9338976966523094	0.042236608003567974	-0.14201512149341103	0.9207553849562984	-0.02153851042710013	0.3980069517136354	1.1732718203710915	-0.11643853370738334	0.3144884844345369	1.1572608229268393	-0.11800480257404289	0.40233978782627466	0.9292281170950827	-0.024667177951050116	0.40513009638261066	0.9149955538312796	-0.08960717571881466
3	0.06	0.1338161587198756	0.9719144918339392	-0.0465397859384931	0.0268816569500843	0.9582161342742008	-0.040333361862769	0.011647605950412	0.5202503586173474	-0.0710890161550595	0.0027662976029159	0.093463752634469	-0.083939019244328	-0.0008120504437644	0.0414419990121353	0.0861749593690342	-0.0540085105452598	0.043835615225812	0.0321635771981555	0.0117012832808056	0.0495158851694755	-0.1214083577552109	0.2413633945805102	0.9557786271389668	-0.0568565476304611	0.2421175098457709	0.5193604744026121	-0.1054607006223338	0.245921323096301	0.0955745454517857	-0.1111074409491899	0.2872438583150057	0.0407797946300769	0.0568921313124701	0.3292588966912085	0.0418564360373254	-0.0100460589257042	0.232555302231531	0.049479715476952	-0.1450401538416842	0.145720038631326	1.5801739896050957	-0.0545437770072716	0.146030712615781	1.823785466352661	-0.0209684002684764	0.1531779033566508	1.6960789678536636	0.0807689160883322	-0.0200343175485572	1.4717053306026977	-0.0455789559292973	-0.0713442377547015	1.1899272959063996	-0.0370255006946434	-0.1304819062550972	0.9419547996011182	0.0093219095694261	0.318306154154508	1.473600369287248	-0.0805017404097998	0.356782650927114	1.193738271281271	-0.086694435672416	0.4042382541357072	0.94685487197328	-0.0687581511328194	-0.014902227709312127	1.034487580608274	0.03980199152620412	0.2979312747725108	1.0334754478829105	0.005103294747370278	0.0577144620332279	1.0741831991521191	-0.18510297113589913	0.17965429777793063	1.07365856853418	-0.1984267582409755	-0.04533913783679877	0.5256554827671017	-0.06780683135052272	0.08374074936925979	0.5233080858695421	-0.056992125975596414	-0.05159942209495921	0.09886332821519628	-0.10732434477165798	0.044521104506838244	0.09919111666298597	-0.07503027768745212	-0.014269130573397376	0.05069721544296946	0.05448959545343843	-0.0776738496685534	0.04551616095998945	0.001715964036599217	0.011679128510282369	0.06592171655550616	-0.1723433521842675	0.30740593650992143	0.5227876827884952	-0.1182542387837372	0.191010666382727	0.5246183538910663	-0.07298567644219842	0.29100167076868355	0.09392223677866562	-0.1439868733547895	0.2106212168897359	0.097018672689001	-0.08762914958154194	0.30019844241438387	0.05037801627648453	0.016386704788897075	0.21835569023481935	0.06231099742705337	-0.18633491564852622	0.34669355077104225	0.045846526192170556	-0.04835133498580029	-0.018507914055750474	1.5527052666555772	-0.04273335869343806	0.3185874897538516	1.5509668498025193	-0.0776796918336993	0.13654243015785958	1.5695486862450208	-0.1606476230882362	-0.06032198488812923	0.7952958784615762	0.026633006085516484	-0.07834385387257417	0.6902484178545656	-0.015263320536106594	-0.08613525804780517	0.8062233634486644	-0.10567679983065292	0.33875686695499385	0.7955126638692549	-0.031022497699483294	0.34788309912797954	0.6880679482708616	-0.07594089248920811	0.33078765123600407	0.8013816661017313	-0.1585975159794587	-0.05899920872570519	0.39822952206964257	-0.07893142189001925	-0.07599086052141452	0.27029539801699554	-0.0539421191569384	-0.07113786290126492	0.2845604227247919	-0.13658901260196102	0.3148867979037323	0.3955240595076943	-0.1280527902404703	0.3332087414830073	0.26701418519259335	-0.10611850362174585	0.30762618447162615	0.27979578733606403	-0.18195034253677828	0.03527440766355448	0.949431366915786	-0.0753986974620385	0.22410355675939575	0.9491304518463596	-0.09604757800239026	-0.1317986421383782	1.1749858906213673	-0.04973009917054118	-0.04514885841439614	1.1560285817990832	-0.07123434211530322	-0.1217390906063753	0.9347721243927972	0.04534005143416177	-0.14238783022883064	0.9188608968191997	-0.019048348392036157	0.4018931844301308	1.1729424066537208	-0.1165433546034862	0.3133972957387333	1.1556186315073134	-0.117507508140312	0.40520564076527876	0.9284994427149411	-0.024002459635638247	0.4055171364200937	0.9143480011868351	-0.08867250568652328
